<svg width="187" height="201" viewBox="0 0 187 201" fill="none" xmlns="http://www.w3.org/2000/svg">
  <path d="M130 189V198H3.5V21.5H13" stroke="currentColor" stroke-width="6" stroke-linejoin="round"/>
  <path d="M138 179.975V189H13V12H22.3874" stroke="currentColor" stroke-width="6" stroke-linejoin="round"/>
  <path d="M130 3H32.5H23V179.5H149.5V170.5V22.5M130 3L149.5 22.5M130 3V22.5H149.5" stroke="currentColor" stroke-width="6" stroke-linejoin="round"/>
  <path d="M108.5 81H128H81.5H44H55" stroke="currentColor" stroke-width="6" stroke-linejoin="round"/>
  <path d="M108.5 97H128H81.5H44H55" stroke="currentColor" stroke-width="6" stroke-linejoin="round"/>
  <path d="M108.5 113H128H81.5H44H55" stroke="currentColor" stroke-width="6" stroke-linejoin="round"/>
  <path d="M55 129H44H81.5H88H84.5M111 152.5V150V157M121 161.5V164V158V157M124 157H128.5H121M121 157V150L111 164V157M105 157H103H111" stroke="currentColor" stroke-width="6" stroke-linejoin="round"/>
  <path d="M57.5 44.5V29V59H69.5H50H44H46.5" stroke="currentColor" stroke-width="6" stroke-linejoin="round"/>
  <path d="M47 43.5H49H44H39.5H42" stroke="currentColor" stroke-width="6" stroke-linejoin="round"/>
  <path d="M73 43.5H75H70H65.5H68" stroke="currentColor" stroke-width="6" stroke-linejoin="round"/>
  <path d="M68.5 33H70.5H65.5H61H63.5" stroke="currentColor" stroke-width="6" stroke-linejoin="round"/>
  <path d="M52.5 33H54.5H49.5H45H47.5" stroke="currentColor" stroke-width="6" stroke-linejoin="round"/>
  <path d="M167.5 156L173.5 148.5V141M167.5 156L161.5 148.5V141M167.5 156V162.5V160M161.5 71.5V39C163.068 34.713 164.435 33.5274 167.5 33C172.785 33.9666 173.608 35.5077 173.5 39V43M161.5 71.5H173.5M161.5 71.5V141M173.5 71.5V141M173.5 71.5V43M161.5 141H173.5M184 81.5V90V48C183.261 45.1115 182.199 43.9911 179 43H173.5" stroke="currentColor" stroke-width="6" stroke-linejoin="round"/>
</svg>
