<svg width="204" height="202" viewBox="0 0 204 202" fill="none" xmlns="http://www.w3.org/2000/svg">
  <path d="M101.5 118.5V124.5V111M101.5 111H29.5V124.5V118.5M101.5 111H173.5V124.5V118.5M101.5 111V51M101.5 51H120H112.5M101.5 51H83H89.5" stroke="currentColor" stroke-width="6" stroke-linejoin="round"/>
  <path d="M117 152C117 160.284 110.284 167 102 167C93.7158 167 87.0001 160.284 87.0001 152C87.0001 143.716 93.7158 137 102 137C110.284 137 117 143.716 117 152Z" stroke="currentColor" stroke-width="6" stroke-linejoin="round"/>
  <path d="M189 152C189 160.284 182.284 167 174 167C165.716 167 159 160.284 159 152C159 143.716 165.716 137 174 137C182.284 137 189 143.716 189 152Z" stroke="currentColor" stroke-width="6" stroke-linejoin="round"/>
  <path d="M46 152C46 160.284 39.2843 167 31 167C22.7157 167 16 160.284 16 152C16 143.716 22.7157 137 31 137C39.2843 137 46 143.716 46 152Z" stroke="currentColor" stroke-width="6" stroke-linejoin="round"/>
  <path d="M54.5 175.5C35.7548 180.515 25.2452 181.1 6.5 175.5L3 198.5H57L54.5 175.5Z" stroke="currentColor" stroke-width="6" stroke-linejoin="round"/>
  <path d="M70.5 55C51.7548 60.0151 41.2452 60.6002 22.5 55L19 78H73L70.5 55Z" stroke="currentColor" stroke-width="6" stroke-linejoin="round"/>
  <path d="M198.5 176C179.755 181.015 169.245 181.6 150.5 176L147 199H201L198.5 176Z" stroke="currentColor" stroke-width="6" stroke-linejoin="round"/>
  <path d="M126.5 176C107.755 181.015 97.2452 181.6 78.5 176L75 199H129L126.5 176Z" stroke="currentColor" stroke-width="6" stroke-linejoin="round"/>
  <path d="M66 24C66 35.598 56.598 45 45 45C33.402 45 24 35.598 24 24C24 12.402 33.402 3 45 3C56.598 3 66 12.402 66 24Z" stroke="currentColor" stroke-width="6" stroke-linejoin="round"/>
  <path d="M127.5 34.5H125.5H129C132.923 34.5237 135.043 33.7094 138.695 31M138.695 31C141.578 39.1563 149.356 45 158.5 45C167.338 45 174.901 39.5401 178 31.8093M138.695 31C137.921 28.8105 137.5 26.4544 137.5 24C137.5 12.402 146.902 3 158.5 3C170.098 3 179.5 12.402 179.5 24C179.5 26.7598 178.968 29.3952 178 31.8093M178 31.8093C180.63 33.403 182.201 34.1186 185.5 34.5C187.453 34.7172 188.547 34.7087 190.5 34.5H186M135 53.5C153.55 61.3232 163.95 61.9401 182.5 53.5C184.004 56.893 184.347 58.8787 184.5 62.5V75H132V62.5C132.341 58.6098 132.807 56.5531 135 53.5Z" stroke="currentColor" stroke-width="6" stroke-linejoin="round"/>
</svg>
