<svg width="190" height="184" viewBox="0 0 190 184" fill="none" xmlns="http://www.w3.org/2000/svg">
  <path d="M72 60H17C9.26801 60 3 66.268 3 74V167C3 174.732 9.26801 181 17 181H72C79.732 181 86 174.732 86 167V74C86 66.268 79.732 60 72 60Z" stroke="currentColor" stroke-width="6" stroke-linejoin="round"/>
  <path d="M107.5 3V53.5M107.5 3C88.9113 3 72.6683 13.0435 63.9016 28M107.5 3C120.776 3 132.856 8.12301 141.87 16.5M57.4144 60C57.141 57.872 57 55.7024 57 53.5C57 44.1984 59.5148 35.4841 63.9016 28M86 99.2078C92.5232 102.282 99.8109 104 107.5 104C127.306 104 144.449 92.5981 152.723 76M152.723 76L107.5 53.5M152.723 76C155.18 71.0708 156.855 65.6832 157.586 60M107.5 53.5L154.5 34.9901M154.5 34.9901C156.759 40.7217 158 46.9659 158 53.5C158 55.7024 157.859 57.872 157.586 60M154.5 34.9901C151.706 27.9023 147.356 21.5985 141.87 16.5M63.9016 28L53.5 16H35.5M29 16H22.5M141.87 16.5L152 3.5H171M177.5 3.5H183.5M157.586 60L167.5 69.5H177.5M183.5 69.5H190" stroke="currentColor" stroke-width="6"/>
  <path d="M54 164H73V126M54 164V145M54 164H35M54 108H73V126M54 108V145M54 108H35M16 126V108H35M16 126H73M16 126V145M16 145V164H35M16 145H54M35 164V108M70 181H117M117 181H149M117 181V168M117 130H86V142.5H117M117 130V142.5M117 130H133M149 181H186.5V168M149 181V168M149 130V141.5M149 130H133M149 130H164M149 141.5H186.5M149 141.5V155M186.5 141.5V130H164M186.5 141.5V155M149 155H186.5M149 155V168M186.5 155V168M186.5 168H149M117 168H86V155H117M117 168V155M117 155V142.5M133 130C143.4 130 150 115.833 152 110V102H180.5V110C179.833 115.833 175.6 130 164 130M16 76H73V89C50.0176 97.9309 37.4485 98.2607 16 89C16 86.5 16 76 16 76Z" stroke="currentColor" stroke-width="6" stroke-linejoin="round"/>
</svg>
