<svg width="166" height="203" viewBox="0 0 166 203" fill="none" xmlns="http://www.w3.org/2000/svg">
  <path d="M105 82L103 80L114 69L162.5 117.5L151.5 128.5L149.5 126.5M105 82L99 88L103 92M105 82L149.5 126.5M149.5 126.5L143.5 132.5L139.5 128.5M60.5 82L62.5 80L51.5 69L3 117.5L14 128.5L16 126.5M60.5 82L66.5 88L62.5 92M60.5 82L16 126.5M16 126.5L22 132.5L26.5 128M62.5 92L82.5 103.5M62.5 92L26.5 128M82.5 103.5L85 101.5L103 92M82.5 103.5L63.5 123.5C60.6995 127.823 61.389 129.857 64 134.5C68.6033 136.434 70.5325 137.065 74.5 135L91 118H96.5L127 148.5M103 92L139.5 128.5M122 162.5C126.22 165.251 128.266 165.073 131.5 162.5C133.483 158.791 133.798 156.708 131.5 153L127 148.5M122 162.5C124.288 167.781 124.469 170.452 122 174.5C117.75 177.442 115.242 177.561 110.5 174.5M122 162.5L116 156.5L124 164.5M110.5 174.5C112.732 179.576 112.982 182.16 110.5 186C106.792 189.358 104.45 188.989 100 186M110.5 174.5L104.5 168.5L112.5 176.5M100 186C102.725 191.161 102.942 193.825 100 198C93.9118 200.991 89.378 198.787 86 196M100 186L94 180L102.5 189M86 196C80.104 197.687 78.9012 199.888 73.5 198C69.5731 192.752 69.7746 189.691 74 184M86 196C89.1498 191.535 89.9638 188.945 88 184C83.2993 180.211 80.1795 180.479 74 184M26.5 128L40.5 150M40.5 150C36.2908 155.011 36.396 157.726 38.5 162.5C42.8546 165.7 45.6692 165.846 51.5 162.5M40.5 150C45.63 146.208 48.3506 146.335 53 149.5C56.4122 155.272 55.2446 157.971 51.5 162.5M51.5 162.5C47.3861 167.408 47.6482 170.005 50.5 174.5C55.5726 177.651 58.1343 176.832 62.5 173.5M51.5 162.5C56.4912 157.955 59.2422 157.034 64 160.5C67.5927 165.548 66.4867 168.399 62.5 173.5M62.5 173.5C58.9085 178.388 58.5625 181.122 61.5 186C66.2132 188.094 68.9352 187.912 74 184M62.5 173.5C67.2389 169.427 69.8687 168.754 74.5 171C78.579 176.354 77.6673 179.147 74 184M139.5 128.5L127 148.5" stroke="currentColor" stroke-width="6" stroke-linejoin="round"/>
  <path d="M114.5 34.5C114.5 51.897 100.397 66 83 66C65.603 66 51.5 51.897 51.5 34.5C51.5 17.103 65.603 3 83 3C100.397 3 114.5 17.103 114.5 34.5Z" stroke="currentColor" stroke-width="6" stroke-linejoin="round"/>
  <path d="M83 35.5V20V50H95H75.5H69.5H72" stroke="currentColor" stroke-width="6" stroke-linejoin="round"/>
  <path d="M72.5 34.5H74.5H69.5H65H67.5" stroke="currentColor" stroke-width="6" stroke-linejoin="round"/>
  <path d="M98.5 34.5H100.5H95.5H91H93.5" stroke="currentColor" stroke-width="6" stroke-linejoin="round"/>
  <path d="M94 24H96H91H86.5H89" stroke="currentColor" stroke-width="6" stroke-linejoin="round"/>
  <path d="M78 24H80H75H70.5H73" stroke="currentColor" stroke-width="6" stroke-linejoin="round"/>
</svg>
