<svg width="201" height="199" viewBox="0 0 201 199" fill="none" xmlns="http://www.w3.org/2000/svg">
  <circle cx="48" cy="150" r="32" stroke="currentColor" stroke-width="6"/>
  <path d="M41.5 88.5H28.5V109.433C13.4124 116.699 3 132.133 3 150C3 174.853 23.1472 195 48 195C72.8528 195 93 174.853 93 150C93 132.133 82.5876 116.699 67.5 109.433V88.5H53.5M41.5 88.5V83.5C42.5461 79.8612 43.6853 78.3706 47.5 77.5C51.9507 78.6935 53.0522 80.1269 53.5 83.5V88.5M41.5 88.5H53.5" stroke="currentColor" stroke-width="6" stroke-linejoin="round"/>
  <path d="M49 195C73.8528 195 94 174.853 94 150C94 132.133 83.5876 116.699 68.5 109.433V88.5H54.5M49 195C24.1472 195 4 174.853 4 150C4 132.133 14.4124 116.699 29.5 109.433V88.5H42.5M49 195C51.7404 194.453 53.1704 193.857 54.5 189.5C54.0354 185.106 52.8157 183.524 49 182M42.5 88.5V83.5C43.5461 79.8612 44.6853 78.3706 48.5 77.5C52.9507 78.6935 54.0522 80.1269 54.5 83.5V88.5M42.5 88.5H54.5M54.5 102V100.5V103V104V100" stroke="currentColor" stroke-width="6" stroke-linejoin="round"/>
  <circle cx="152" cy="150.5" r="32" stroke="currentColor" stroke-width="6"/>
  <path d="M146.5 89H133.5V109.933C118.412 117.199 108 132.633 108 150.5C108 174.005 126.021 193.301 149 195.325M146.5 89V84C147.546 80.3612 148.685 78.8706 152.5 78C156.951 79.1935 158.052 80.6269 158.5 84V89M146.5 89H158.5M158.5 89H172.5V109.933C187.588 117.199 198 132.633 198 150.5C198 175.353 177.853 195.5 153 195.5C151.652 195.5 150.318 195.441 149 195.325M153 182.5C149.229 183.096 147.79 184.445 146 188C145.814 191.972 146.572 193.489 149 195.325M146 101.5V100V102.5V103.5V99" stroke="currentColor" stroke-width="6" stroke-linejoin="round"/>
  <circle cx="100" cy="26" r="23" stroke="currentColor" stroke-width="6" stroke-linejoin="round"/>
  <path d="M77 25.5V30.75M123 25.5V30.75M100 27.5V35V25.5V17.5V21.5M48 78C48.8036 66.7869 49.8903 60.4723 56.5 49C62.4918 40.6628 66.9115 36.6339 77 30.75M77 30.75V36C77 45.5087 82.7702 53.6697 91 57.1725M152.5 78C152.158 65.9025 150.268 59.5224 143.5 49C137.056 40.6165 132.838 36.4011 123 30.75M123 30.75V36C123 45.1187 117.693 52.998 110 56.7182M91 47V57.1725M91 57.1725C93.7643 58.349 96.8061 59 100 59C103.584 59 106.976 58.1803 110 56.7182M110 47V56.7182" stroke="currentColor" stroke-width="6" stroke-linejoin="round"/>
</svg>
