<svg width="98" height="98" viewBox="0 0 98 98" fill="none" xmlns="http://www.w3.org/2000/svg">
  <g filter="url(#filter0_d_124_99)">
    <circle cx="49" cy="45" r="44.5" fill="#2E3146" stroke="#CACED5"/>
    <path d="M90.8913 45C90.8913 68.1359 72.1359 86.8913 48.9999 86.8913C25.864 86.8913 7.10864 68.1359 7.10864 45C7.10864 21.864 25.864 3.10864 48.9999 3.10864C72.1359 3.10864 90.8913 21.864 90.8913 45Z" fill="#CACED5" stroke="#CACED5"/>
    <g filter="url(#filter1_d_124_99)">
      <mask id="path-3-outside-1_124_99" maskUnits="userSpaceOnUse" x="22.2391" y="30.4249" width="58" height="41" fill="black">
        <rect fill="white" x="22.2391" y="30.4249" width="58" height="41"/>
        <path d="M78.7758 68.5053C78.7351 68.5321 78.5516 68.6258 78.2255 68.7865C77.8995 68.9473 77.4715 69.1214 76.9416 69.3089C76.4117 69.4964 75.8071 69.6638 75.1277 69.8111C74.4484 69.9718 73.7419 70.0522 73.0082 70.0522C71.8125 70.0522 70.7391 69.8446 69.788 69.4294C68.837 69.0142 68.0285 68.4249 67.3628 67.6615C66.7106 66.9115 66.2079 66.0008 65.8546 64.9294C65.5014 63.8714 65.3247 62.6928 65.3247 61.3937C65.3247 60.1481 65.481 58.7821 65.7935 57.2955C66.106 55.7955 66.5136 54.2553 67.0163 52.6749C67.519 51.0946 68.0829 49.5142 68.7079 47.9339C69.3465 46.3535 69.9851 44.8535 70.6236 43.4339C71.2758 42.0008 71.894 40.695 72.4783 39.5164C73.0625 38.3245 73.5652 37.3334 73.9864 36.5432C73.2255 37.4004 72.356 38.3914 71.3777 39.5164C70.3995 40.6281 69.3533 41.8535 68.2391 43.1928C67.1386 44.5187 65.9905 45.9383 64.7948 47.4517C63.5992 48.9517 62.3899 50.5187 61.1671 52.1526C59.9579 53.7731 58.7554 55.4406 57.5598 57.1548C56.3641 58.8557 55.2228 60.57 54.1359 62.2977L53.1576 61.9763C53.3614 59.7932 53.6943 57.6303 54.1563 55.4874C54.6318 53.3312 55.1617 51.262 55.7459 49.2798C56.3438 47.2843 56.9688 45.416 57.6209 43.6749C58.2867 41.9205 58.9185 40.3535 59.5163 38.974C58.606 40.2062 57.6957 41.5455 56.7853 42.9919C55.8886 44.4249 54.9783 45.9048 54.0544 47.4316C53.1304 48.945 52.1794 50.4718 51.2011 52.012C50.2228 53.5388 49.2038 55.012 48.144 56.4316C47.0842 57.8379 45.9633 59.1571 44.7813 60.3892C43.6128 61.608 42.3628 62.666 41.0313 63.5633C39.7133 64.474 38.3003 65.1906 36.7921 65.7129C35.2976 66.2352 33.6943 66.4964 31.9823 66.4964C30.6644 66.4964 29.4688 66.3022 28.3954 65.9138C27.322 65.5254 26.3981 64.9897 25.6236 64.3066C24.8628 63.637 24.2785 62.8468 23.8709 61.9361C23.4497 61.0254 23.2391 60.041 23.2391 58.983C23.2391 57.9517 23.409 57.0209 23.7486 56.1906C24.0747 55.3468 24.5163 54.6035 25.0734 53.9606C25.6304 53.3044 26.2758 52.7419 27.0095 52.2731C27.7568 51.791 28.538 51.3959 29.3533 51.0879C30.1685 50.7798 30.9905 50.5522 31.8193 50.4048C32.6617 50.2575 33.4633 50.1839 34.2242 50.1839C35.8003 50.1839 37.3084 50.3714 38.7486 50.7464C40.1889 51.108 41.5747 51.7575 42.9063 52.695L42.1929 53.4785C42.1794 53.4651 42.0027 53.3446 41.663 53.1169C41.3234 52.8758 40.8342 52.6147 40.1957 52.3334C39.5571 52.0522 38.7622 51.7977 37.8111 51.57C36.8736 51.3423 35.8003 51.2285 34.591 51.2285C33.4226 51.2285 32.288 51.3825 31.1875 51.6906C30.1005 51.9986 29.1359 52.4673 28.2935 53.0968C27.4647 53.7129 26.7989 54.4964 26.2962 55.4473C25.7935 56.3848 25.5421 57.4897 25.5421 58.762C25.5421 59.6727 25.7188 60.5164 26.072 61.2932C26.4389 62.07 26.9416 62.7397 27.5802 63.3022C28.2188 63.8781 28.9864 64.3267 29.8832 64.6481C30.7799 64.9696 31.7717 65.1303 32.8587 65.1303C34.4891 65.1303 36.0516 64.7888 37.5462 64.1057C39.0408 63.4227 40.481 62.4986 41.8669 61.3334C43.2527 60.1682 44.5842 58.8089 45.8614 57.2553C47.1522 55.7017 48.3886 54.0611 49.5707 52.3334C50.7663 50.6057 51.9212 48.8312 53.0353 47.0097C54.1495 45.1883 55.2296 43.4339 56.2758 41.7464C57.322 40.0455 58.341 38.4584 59.3329 36.9852C60.3247 35.4986 61.2962 34.2196 62.2473 33.1481L63.1644 33.6906C62.5666 35.4852 62.0503 37.0656 61.6155 38.4316C61.1807 39.7843 60.8003 40.9763 60.4742 42.0075C60.1617 43.0388 59.8899 43.9294 59.659 44.6794C59.4416 45.4294 59.2514 46.099 59.0883 46.6883C58.9253 47.2776 58.7758 47.8133 58.6399 48.2955C58.5177 48.7642 58.3886 49.233 58.2527 49.7017C58.1304 50.1705 57.9878 50.666 57.8247 51.1883C57.6617 51.7106 57.4647 52.32 57.2337 53.0164C57.0027 53.6995 56.731 54.4964 56.4185 55.4071C56.106 56.3044 55.7255 57.3691 55.2772 58.6013C56.4185 56.9004 57.587 55.2263 58.7826 53.5789C59.9919 51.9316 61.1943 50.3379 62.3899 48.7977C63.5856 47.2575 64.7541 45.7843 65.8954 44.3781C67.0503 42.9718 68.1372 41.666 69.1563 40.4606C70.1889 39.2553 71.1332 38.1638 71.9891 37.1861C72.8587 36.195 73.6128 35.3513 74.2514 34.6548C74.8899 33.9584 75.3859 33.416 75.7391 33.0276C76.106 32.6392 76.2962 32.4383 76.3098 32.4249L77.1658 33.0477C76.3641 35.0031 75.5693 36.9651 74.7813 38.9339C73.9932 40.8892 73.2323 42.7977 72.4986 44.6593C71.7785 46.5209 71.106 48.3156 70.481 50.0432C69.856 51.7709 69.3125 53.3914 68.8505 54.9048C68.3886 56.4048 68.0217 57.7776 67.75 59.0231C67.4919 60.2553 67.3628 61.3133 67.3628 62.1973C67.3628 63.2419 67.4851 64.1861 67.7296 65.0298C67.9878 65.8736 68.3546 66.5901 68.8302 67.1794C69.3057 67.7687 69.8899 68.2173 70.5829 68.5254C71.2894 68.8468 72.0842 69.0075 72.9674 69.0075C73.6332 69.0075 74.2785 68.9339 74.9035 68.7865C75.5421 68.6392 76.106 68.4785 76.5951 68.3044C77.0842 68.1303 77.4783 67.9696 77.7772 67.8223C78.0761 67.6749 78.2323 67.6013 78.2459 67.6013L78.7758 68.5053Z"/>
      </mask>
      <path d="M78.7758 68.5053C78.7351 68.5321 78.5516 68.6258 78.2255 68.7865C77.8995 68.9473 77.4715 69.1214 76.9416 69.3089C76.4117 69.4964 75.8071 69.6638 75.1277 69.8111C74.4484 69.9718 73.7419 70.0522 73.0082 70.0522C71.8125 70.0522 70.7391 69.8446 69.788 69.4294C68.837 69.0142 68.0285 68.4249 67.3628 67.6615C66.7106 66.9115 66.2079 66.0008 65.8546 64.9294C65.5014 63.8714 65.3247 62.6928 65.3247 61.3937C65.3247 60.1481 65.481 58.7821 65.7935 57.2955C66.106 55.7955 66.5136 54.2553 67.0163 52.6749C67.519 51.0946 68.0829 49.5142 68.7079 47.9339C69.3465 46.3535 69.9851 44.8535 70.6236 43.4339C71.2758 42.0008 71.894 40.695 72.4783 39.5164C73.0625 38.3245 73.5652 37.3334 73.9864 36.5432C73.2255 37.4004 72.356 38.3914 71.3777 39.5164C70.3995 40.6281 69.3533 41.8535 68.2391 43.1928C67.1386 44.5187 65.9905 45.9383 64.7948 47.4517C63.5992 48.9517 62.3899 50.5187 61.1671 52.1526C59.9579 53.7731 58.7554 55.4406 57.5598 57.1548C56.3641 58.8557 55.2228 60.57 54.1359 62.2977L53.1576 61.9763C53.3614 59.7932 53.6943 57.6303 54.1563 55.4874C54.6318 53.3312 55.1617 51.262 55.7459 49.2798C56.3438 47.2843 56.9688 45.416 57.6209 43.6749C58.2867 41.9205 58.9185 40.3535 59.5163 38.974C58.606 40.2062 57.6957 41.5455 56.7853 42.9919C55.8886 44.4249 54.9783 45.9048 54.0544 47.4316C53.1304 48.945 52.1794 50.4718 51.2011 52.012C50.2228 53.5388 49.2038 55.012 48.144 56.4316C47.0842 57.8379 45.9633 59.1571 44.7813 60.3892C43.6128 61.608 42.3628 62.666 41.0313 63.5633C39.7133 64.474 38.3003 65.1906 36.7921 65.7129C35.2976 66.2352 33.6943 66.4964 31.9823 66.4964C30.6644 66.4964 29.4688 66.3022 28.3954 65.9138C27.322 65.5254 26.3981 64.9897 25.6236 64.3066C24.8628 63.637 24.2785 62.8468 23.8709 61.9361C23.4497 61.0254 23.2391 60.041 23.2391 58.983C23.2391 57.9517 23.409 57.0209 23.7486 56.1906C24.0747 55.3468 24.5163 54.6035 25.0734 53.9606C25.6304 53.3044 26.2758 52.7419 27.0095 52.2731C27.7568 51.791 28.538 51.3959 29.3533 51.0879C30.1685 50.7798 30.9905 50.5522 31.8193 50.4048C32.6617 50.2575 33.4633 50.1839 34.2242 50.1839C35.8003 50.1839 37.3084 50.3714 38.7486 50.7464C40.1889 51.108 41.5747 51.7575 42.9063 52.695L42.1929 53.4785C42.1794 53.4651 42.0027 53.3446 41.663 53.1169C41.3234 52.8758 40.8342 52.6147 40.1957 52.3334C39.5571 52.0522 38.7622 51.7977 37.8111 51.57C36.8736 51.3423 35.8003 51.2285 34.591 51.2285C33.4226 51.2285 32.288 51.3825 31.1875 51.6906C30.1005 51.9986 29.1359 52.4673 28.2935 53.0968C27.4647 53.7129 26.7989 54.4964 26.2962 55.4473C25.7935 56.3848 25.5421 57.4897 25.5421 58.762C25.5421 59.6727 25.7188 60.5164 26.072 61.2932C26.4389 62.07 26.9416 62.7397 27.5802 63.3022C28.2188 63.8781 28.9864 64.3267 29.8832 64.6481C30.7799 64.9696 31.7717 65.1303 32.8587 65.1303C34.4891 65.1303 36.0516 64.7888 37.5462 64.1057C39.0408 63.4227 40.481 62.4986 41.8669 61.3334C43.2527 60.1682 44.5842 58.8089 45.8614 57.2553C47.1522 55.7017 48.3886 54.0611 49.5707 52.3334C50.7663 50.6057 51.9212 48.8312 53.0353 47.0097C54.1495 45.1883 55.2296 43.4339 56.2758 41.7464C57.322 40.0455 58.341 38.4584 59.3329 36.9852C60.3247 35.4986 61.2962 34.2196 62.2473 33.1481L63.1644 33.6906C62.5666 35.4852 62.0503 37.0656 61.6155 38.4316C61.1807 39.7843 60.8003 40.9763 60.4742 42.0075C60.1617 43.0388 59.8899 43.9294 59.659 44.6794C59.4416 45.4294 59.2514 46.099 59.0883 46.6883C58.9253 47.2776 58.7758 47.8133 58.6399 48.2955C58.5177 48.7642 58.3886 49.233 58.2527 49.7017C58.1304 50.1705 57.9878 50.666 57.8247 51.1883C57.6617 51.7106 57.4647 52.32 57.2337 53.0164C57.0027 53.6995 56.731 54.4964 56.4185 55.4071C56.106 56.3044 55.7255 57.3691 55.2772 58.6013C56.4185 56.9004 57.587 55.2263 58.7826 53.5789C59.9919 51.9316 61.1943 50.3379 62.3899 48.7977C63.5856 47.2575 64.7541 45.7843 65.8954 44.3781C67.0503 42.9718 68.1372 41.666 69.1563 40.4606C70.1889 39.2553 71.1332 38.1638 71.9891 37.1861C72.8587 36.195 73.6128 35.3513 74.2514 34.6548C74.8899 33.9584 75.3859 33.416 75.7391 33.0276C76.106 32.6392 76.2962 32.4383 76.3098 32.4249L77.1658 33.0477C76.3641 35.0031 75.5693 36.9651 74.7813 38.9339C73.9932 40.8892 73.2323 42.7977 72.4986 44.6593C71.7785 46.5209 71.106 48.3156 70.481 50.0432C69.856 51.7709 69.3125 53.3914 68.8505 54.9048C68.3886 56.4048 68.0217 57.7776 67.75 59.0231C67.4919 60.2553 67.3628 61.3133 67.3628 62.1973C67.3628 63.2419 67.4851 64.1861 67.7296 65.0298C67.9878 65.8736 68.3546 66.5901 68.8302 67.1794C69.3057 67.7687 69.8899 68.2173 70.5829 68.5254C71.2894 68.8468 72.0842 69.0075 72.9674 69.0075C73.6332 69.0075 74.2785 68.9339 74.9035 68.7865C75.5421 68.6392 76.106 68.4785 76.5951 68.3044C77.0842 68.1303 77.4783 67.9696 77.7772 67.8223C78.0761 67.6749 78.2323 67.6013 78.2459 67.6013L78.7758 68.5053Z" fill="#A51C30"/>
      <path d="M78.7758 68.5053C78.7351 68.5321 78.5516 68.6258 78.2255 68.7865C77.8995 68.9473 77.4715 69.1214 76.9416 69.3089C76.4117 69.4964 75.8071 69.6638 75.1277 69.8111C74.4484 69.9718 73.7419 70.0522 73.0082 70.0522C71.8125 70.0522 70.7391 69.8446 69.788 69.4294C68.837 69.0142 68.0285 68.4249 67.3628 67.6615C66.7106 66.9115 66.2079 66.0008 65.8546 64.9294C65.5014 63.8714 65.3247 62.6928 65.3247 61.3937C65.3247 60.1481 65.481 58.7821 65.7935 57.2955C66.106 55.7955 66.5136 54.2553 67.0163 52.6749C67.519 51.0946 68.0829 49.5142 68.7079 47.9339C69.3465 46.3535 69.9851 44.8535 70.6236 43.4339C71.2758 42.0008 71.894 40.695 72.4783 39.5164C73.0625 38.3245 73.5652 37.3334 73.9864 36.5432C73.2255 37.4004 72.356 38.3914 71.3777 39.5164C70.3995 40.6281 69.3533 41.8535 68.2391 43.1928C67.1386 44.5187 65.9905 45.9383 64.7948 47.4517C63.5992 48.9517 62.3899 50.5187 61.1671 52.1526C59.9579 53.7731 58.7554 55.4406 57.5598 57.1548C56.3641 58.8557 55.2228 60.57 54.1359 62.2977L53.1576 61.9763C53.3614 59.7932 53.6943 57.6303 54.1563 55.4874C54.6318 53.3312 55.1617 51.262 55.7459 49.2798C56.3438 47.2843 56.9688 45.416 57.6209 43.6749C58.2867 41.9205 58.9185 40.3535 59.5163 38.974C58.606 40.2062 57.6957 41.5455 56.7853 42.9919C55.8886 44.4249 54.9783 45.9048 54.0544 47.4316C53.1304 48.945 52.1794 50.4718 51.2011 52.012C50.2228 53.5388 49.2038 55.012 48.144 56.4316C47.0842 57.8379 45.9633 59.1571 44.7813 60.3892C43.6128 61.608 42.3628 62.666 41.0313 63.5633C39.7133 64.474 38.3003 65.1906 36.7921 65.7129C35.2976 66.2352 33.6943 66.4964 31.9823 66.4964C30.6644 66.4964 29.4688 66.3022 28.3954 65.9138C27.322 65.5254 26.3981 64.9897 25.6236 64.3066C24.8628 63.637 24.2785 62.8468 23.8709 61.9361C23.4497 61.0254 23.2391 60.041 23.2391 58.983C23.2391 57.9517 23.409 57.0209 23.7486 56.1906C24.0747 55.3468 24.5163 54.6035 25.0734 53.9606C25.6304 53.3044 26.2758 52.7419 27.0095 52.2731C27.7568 51.791 28.538 51.3959 29.3533 51.0879C30.1685 50.7798 30.9905 50.5522 31.8193 50.4048C32.6617 50.2575 33.4633 50.1839 34.2242 50.1839C35.8003 50.1839 37.3084 50.3714 38.7486 50.7464C40.1889 51.108 41.5747 51.7575 42.9063 52.695L42.1929 53.4785C42.1794 53.4651 42.0027 53.3446 41.663 53.1169C41.3234 52.8758 40.8342 52.6147 40.1957 52.3334C39.5571 52.0522 38.7622 51.7977 37.8111 51.57C36.8736 51.3423 35.8003 51.2285 34.591 51.2285C33.4226 51.2285 32.288 51.3825 31.1875 51.6906C30.1005 51.9986 29.1359 52.4673 28.2935 53.0968C27.4647 53.7129 26.7989 54.4964 26.2962 55.4473C25.7935 56.3848 25.5421 57.4897 25.5421 58.762C25.5421 59.6727 25.7188 60.5164 26.072 61.2932C26.4389 62.07 26.9416 62.7397 27.5802 63.3022C28.2188 63.8781 28.9864 64.3267 29.8832 64.6481C30.7799 64.9696 31.7717 65.1303 32.8587 65.1303C34.4891 65.1303 36.0516 64.7888 37.5462 64.1057C39.0408 63.4227 40.481 62.4986 41.8669 61.3334C43.2527 60.1682 44.5842 58.8089 45.8614 57.2553C47.1522 55.7017 48.3886 54.0611 49.5707 52.3334C50.7663 50.6057 51.9212 48.8312 53.0353 47.0097C54.1495 45.1883 55.2296 43.4339 56.2758 41.7464C57.322 40.0455 58.341 38.4584 59.3329 36.9852C60.3247 35.4986 61.2962 34.2196 62.2473 33.1481L63.1644 33.6906C62.5666 35.4852 62.0503 37.0656 61.6155 38.4316C61.1807 39.7843 60.8003 40.9763 60.4742 42.0075C60.1617 43.0388 59.8899 43.9294 59.659 44.6794C59.4416 45.4294 59.2514 46.099 59.0883 46.6883C58.9253 47.2776 58.7758 47.8133 58.6399 48.2955C58.5177 48.7642 58.3886 49.233 58.2527 49.7017C58.1304 50.1705 57.9878 50.666 57.8247 51.1883C57.6617 51.7106 57.4647 52.32 57.2337 53.0164C57.0027 53.6995 56.731 54.4964 56.4185 55.4071C56.106 56.3044 55.7255 57.3691 55.2772 58.6013C56.4185 56.9004 57.587 55.2263 58.7826 53.5789C59.9919 51.9316 61.1943 50.3379 62.3899 48.7977C63.5856 47.2575 64.7541 45.7843 65.8954 44.3781C67.0503 42.9718 68.1372 41.666 69.1563 40.4606C70.1889 39.2553 71.1332 38.1638 71.9891 37.1861C72.8587 36.195 73.6128 35.3513 74.2514 34.6548C74.8899 33.9584 75.3859 33.416 75.7391 33.0276C76.106 32.6392 76.2962 32.4383 76.3098 32.4249L77.1658 33.0477C76.3641 35.0031 75.5693 36.9651 74.7813 38.9339C73.9932 40.8892 73.2323 42.7977 72.4986 44.6593C71.7785 46.5209 71.106 48.3156 70.481 50.0432C69.856 51.7709 69.3125 53.3914 68.8505 54.9048C68.3886 56.4048 68.0217 57.7776 67.75 59.0231C67.4919 60.2553 67.3628 61.3133 67.3628 62.1973C67.3628 63.2419 67.4851 64.1861 67.7296 65.0298C67.9878 65.8736 68.3546 66.5901 68.8302 67.1794C69.3057 67.7687 69.8899 68.2173 70.5829 68.5254C71.2894 68.8468 72.0842 69.0075 72.9674 69.0075C73.6332 69.0075 74.2785 68.9339 74.9035 68.7865C75.5421 68.6392 76.106 68.4785 76.5951 68.3044C77.0842 68.1303 77.4783 67.9696 77.7772 67.8223C78.0761 67.6749 78.2323 67.6013 78.2459 67.6013L78.7758 68.5053Z" stroke="#CACED5" stroke-width="2" mask="url(#path-3-outside-1_124_99)"/>
    </g>
    <g filter="url(#filter2_d_124_99)">
      <mask id="path-4-outside-2_124_99" maskUnits="userSpaceOnUse" x="9.84784" y="14.5797" width="61" height="37" fill="black">
        <rect fill="white" x="9.84784" y="14.5797" width="61" height="37"/>
        <path d="M46.697 18.7337C45.8954 19.0283 45.1549 19.2694 44.4756 19.4569C43.8098 19.6444 43.178 19.7917 42.5802 19.8988C41.9959 20.006 41.4253 20.0797 40.8682 20.1198C40.3247 20.16 39.7677 20.1801 39.197 20.1801C38.2731 20.1801 37.3152 20.1198 36.3234 19.9993C35.3315 19.8654 34.3737 19.7984 33.4497 19.7984C32.2133 19.7984 31.0245 19.9591 29.8832 20.2805C28.7554 20.5886 27.7568 21.0573 26.8872 21.6868C26.0177 22.3029 25.3247 23.0797 24.8084 24.0172C24.2921 24.9547 24.034 26.0529 24.034 27.3118C24.034 28.0752 24.1563 28.7716 24.4008 29.4011C24.6454 30.0172 24.9987 30.5462 25.4606 30.9881C25.9226 31.4301 26.4864 31.7716 27.1522 32.0127C27.8179 32.2538 28.5652 32.3743 29.394 32.3743C30.3315 32.3743 31.1468 32.2605 31.8397 32.0328C32.5326 31.8051 33.1033 31.5506 33.5516 31.2694C34.0136 30.9881 34.3601 30.727 34.591 30.4859C34.822 30.2448 34.9511 30.1109 34.9783 30.0841L35.8343 30.7069C35.7935 30.7605 35.6033 30.948 35.2636 31.2694C34.9239 31.5908 34.4416 31.9323 33.8166 32.2939C33.2052 32.6555 32.4443 32.9837 31.534 33.2783C30.6372 33.573 29.6046 33.7203 28.4362 33.7203C27.6753 33.7203 26.894 33.6198 26.0924 33.4189C25.3044 33.218 24.5843 32.8765 23.9321 32.3944C23.2799 31.9122 22.7432 31.2761 22.322 30.4859C21.9008 29.6957 21.6902 28.718 21.6902 27.5529C21.6902 26.602 21.8397 25.7247 22.1386 24.9212C22.4375 24.1176 22.8451 23.3877 23.3614 22.7314C23.8913 22.0752 24.5163 21.4993 25.2364 21.0038C25.9701 20.4948 26.7582 20.073 27.6006 19.7381C28.4565 19.4033 29.3601 19.1488 30.3112 18.9747C31.2622 18.8006 32.2269 18.7136 33.2052 18.7136C33.6264 18.7136 34.1155 18.7404 34.6726 18.7939C35.2432 18.8341 35.8207 18.881 36.4049 18.9346C37.0027 18.9747 37.587 19.0216 38.1576 19.0752C38.7283 19.1154 39.2378 19.1355 39.6862 19.1355C40.1889 19.1355 40.7256 19.1087 41.2962 19.0551C41.8804 18.9881 42.519 18.8743 43.212 18.7136C43.9185 18.5529 44.6929 18.3319 45.5353 18.0506C46.3777 17.756 47.322 17.381 48.3682 16.9256L48.8777 17.8297C48.8777 17.8297 48.7351 17.9703 48.4497 18.2515C48.1644 18.5328 47.7704 19.0283 47.2677 19.7381C46.765 20.448 46.1739 21.4189 45.4946 22.6511C44.8152 23.8832 44.0679 25.4569 43.2527 27.3721C42.4375 29.3006 41.6087 31.2158 40.7663 33.1176C39.9375 35.006 39.0408 36.8006 38.0761 38.5015C37.1114 40.2024 36.0516 41.7828 34.8968 43.2426C33.7554 44.689 32.4579 45.9413 31.0041 46.9993C29.5639 48.0573 27.947 48.881 26.1535 49.4703C24.3737 50.073 22.356 50.3743 20.1006 50.3743C18.7554 50.3743 17.5122 50.2203 16.3709 49.9122C15.2432 49.6042 14.2718 49.1555 13.4565 48.5663C12.6413 47.9904 12.0027 47.2872 11.5408 46.4569C11.0788 45.6265 10.8478 44.689 10.8478 43.6444C10.8478 42.3453 11.1264 41.2136 11.6834 40.2493C12.2405 39.2716 12.981 38.4547 13.9049 37.7984C14.8288 37.1422 15.8954 36.6533 17.1046 36.3319C18.3275 35.9971 19.591 35.8297 20.8954 35.8297C22.1454 35.8297 23.4022 35.9502 24.6658 36.1913C25.9294 36.4323 27.1454 36.7738 28.3139 37.2158L27.9266 38.2002C27.0571 37.8788 26.0992 37.6377 25.053 37.477C24.0068 37.3029 23.0285 37.2158 22.1182 37.2158C20.7188 37.2158 19.4688 37.3631 18.3682 37.6578C17.2677 37.9524 16.3302 38.381 15.5557 38.9435C14.7949 39.4926 14.2106 40.1622 13.803 40.9524C13.409 41.7426 13.212 42.6265 13.212 43.6042C13.212 44.5819 13.4429 45.4189 13.9049 46.1154C14.3804 46.8252 14.9919 47.4011 15.7391 47.843C16.4864 48.2984 17.3152 48.6332 18.2256 48.8475C19.1495 49.0618 20.053 49.1689 20.9362 49.1689C22.5802 49.1689 24.0612 48.948 25.3791 48.506C26.7106 48.0774 27.9131 47.4881 28.9864 46.7381C30.0598 45.9881 31.0177 45.1109 31.8601 44.1064C32.716 43.102 33.4973 42.0305 34.2038 40.8922C34.9239 39.7404 35.5829 38.5551 36.1807 37.3363C36.7785 36.1176 37.356 34.9189 37.9131 33.7404C38.8777 31.5439 39.8628 29.4747 40.8682 27.5328C41.2894 26.7024 41.7378 25.8587 42.2133 25.0015C42.7025 24.1444 43.1984 23.3274 43.7011 22.5506C44.2038 21.7605 44.7065 21.0372 45.2093 20.381C45.7256 19.7113 46.2215 19.1622 46.697 18.7337ZM67.4239 23.6154C67.4239 23.602 67.4783 23.4881 67.587 23.2738C67.6957 23.0596 67.8112 22.785 67.9334 22.4502C68.0693 22.102 68.1848 21.7136 68.2799 21.285C68.3886 20.8564 68.443 20.4212 68.443 19.9792C68.443 19.5238 68.3546 19.1087 68.178 18.7337C68.015 18.3453 67.784 18.0172 67.4851 17.7493C67.1997 17.468 66.8533 17.2538 66.4457 17.1064C66.0381 16.9457 65.6033 16.8654 65.1413 16.8654C64.5299 16.8654 63.9321 17.0261 63.3478 17.3475C62.7772 17.6689 62.1726 18.198 61.534 18.9346C60.909 19.6578 60.2296 20.6087 59.4959 21.7872C58.7622 22.9524 57.9266 24.3855 56.9891 26.0863C56.4728 27.0372 55.9497 27.881 55.4199 28.6176C54.9035 29.3408 54.3872 29.977 53.8709 30.5261C53.3546 31.0752 52.8451 31.5506 52.3424 31.9524C51.8397 32.3408 51.3506 32.6689 50.875 32.9368C51.3234 33.4591 51.697 34.1087 51.9959 34.8855C52.3084 35.6488 52.4647 36.593 52.4647 37.718C52.4647 38.3207 52.3832 38.9837 52.2201 39.7069C52.0707 40.4301 51.9008 41.16 51.7106 41.8966C51.534 42.6332 51.3709 43.3497 51.2215 44.0462C51.072 44.7426 50.9973 45.3587 50.9973 45.8944C50.9973 46.6176 51.106 47.2002 51.3234 47.6422C51.5408 48.0841 51.8193 48.4256 52.159 48.6667C52.4987 48.9212 52.8655 49.0886 53.2595 49.1689C53.6671 49.2493 54.0476 49.2895 54.4008 49.2895C54.9851 49.2895 55.5421 49.1957 56.072 49.0082C56.6155 48.8341 57.0978 48.6332 57.519 48.4055C58.0082 48.1511 58.4633 47.8497 58.8845 47.5015L59.5571 48.3252C59.5163 48.352 59.3329 48.4792 59.0068 48.7069C58.6943 48.948 58.2731 49.2024 57.7432 49.4703C57.2269 49.7381 56.6359 49.9792 55.9701 50.1935C55.3044 50.4078 54.6114 50.5149 53.8913 50.5149C53.144 50.5149 52.4443 50.3877 51.7921 50.1332C51.1535 49.8788 50.5965 49.5172 50.1209 49.0484C49.659 48.5797 49.2921 48.0238 49.0204 47.381C48.7487 46.7381 48.6128 46.0216 48.6128 45.2314C48.6128 44.4814 48.7079 43.7381 48.8981 43.0015C49.0883 42.2649 49.2989 41.5417 49.5299 40.8319C49.7609 40.1221 49.9715 39.4323 50.1617 38.7627C50.3519 38.093 50.447 37.4502 50.447 36.8341C50.447 36.2984 50.3791 35.7493 50.2432 35.1868C50.1209 34.6243 49.8764 34.0886 49.5095 33.5797C48.8845 33.7672 48.2867 33.9212 47.716 34.0417C47.1454 34.1622 46.4932 34.2225 45.7595 34.2225C45.1481 34.2225 44.6658 34.1555 44.3125 34.0216C43.9593 33.8743 43.6943 33.7136 43.5177 33.5395C43.3546 33.352 43.2459 33.1712 43.1916 32.9971C43.1508 32.8096 43.1304 32.6689 43.1304 32.5752C43.1304 32.0127 43.3818 31.5372 43.8845 31.1488C44.4008 30.7471 45.1006 30.5462 45.9837 30.5462C46.4593 30.5462 47.0231 30.6533 47.6753 30.8676C48.3275 31.0685 49.0068 31.41 49.7133 31.8922C50.4606 31.3698 51.1468 30.7136 51.7718 29.9234C52.4103 29.1332 53.015 28.2694 53.5856 27.3319C54.1563 26.381 54.7133 25.3899 55.2568 24.3587C55.8003 23.314 56.3574 22.2761 56.928 21.2448C57.947 19.41 59.1019 18.0105 60.3927 17.0462C61.6834 16.0685 63.0489 15.5797 64.4891 15.5797C65.1141 15.5797 65.7256 15.6801 66.3234 15.881C66.9348 16.0685 67.4783 16.3497 67.9538 16.7247C68.4294 17.0997 68.8098 17.5618 69.0951 18.1109C69.394 18.6466 69.5435 19.2627 69.5435 19.9591C69.5435 20.468 69.4824 20.9636 69.3601 21.4457C69.2514 21.9279 69.1223 22.3631 68.9728 22.7515C68.837 23.1265 68.7011 23.4413 68.5652 23.6957C68.443 23.9368 68.375 24.0774 68.3614 24.1176L67.4239 23.6154ZM48.572 32.5551C48.2188 32.2872 47.8044 32.0596 47.3288 31.8721C46.8669 31.6846 46.4049 31.5908 45.943 31.5908C45.4131 31.5908 44.9987 31.6846 44.6997 31.8721C44.4144 32.0462 44.2718 32.2538 44.2718 32.4948C44.2718 32.6422 44.3669 32.7895 44.5571 32.9368C44.7609 33.0841 45.1549 33.1578 45.7391 33.1578C46.1603 33.1578 46.6223 33.1109 47.125 33.0172C47.6413 32.91 48.1237 32.756 48.572 32.5551Z"/>
      </mask>
      <path d="M46.697 18.7337C45.8954 19.0283 45.1549 19.2694 44.4756 19.4569C43.8098 19.6444 43.178 19.7917 42.5802 19.8988C41.9959 20.006 41.4253 20.0797 40.8682 20.1198C40.3247 20.16 39.7677 20.1801 39.197 20.1801C38.2731 20.1801 37.3152 20.1198 36.3234 19.9993C35.3315 19.8654 34.3737 19.7984 33.4497 19.7984C32.2133 19.7984 31.0245 19.9591 29.8832 20.2805C28.7554 20.5886 27.7568 21.0573 26.8872 21.6868C26.0177 22.3029 25.3247 23.0797 24.8084 24.0172C24.2921 24.9547 24.034 26.0529 24.034 27.3118C24.034 28.0752 24.1563 28.7716 24.4008 29.4011C24.6454 30.0172 24.9987 30.5462 25.4606 30.9881C25.9226 31.4301 26.4864 31.7716 27.1522 32.0127C27.8179 32.2538 28.5652 32.3743 29.394 32.3743C30.3315 32.3743 31.1468 32.2605 31.8397 32.0328C32.5326 31.8051 33.1033 31.5506 33.5516 31.2694C34.0136 30.9881 34.3601 30.727 34.591 30.4859C34.822 30.2448 34.9511 30.1109 34.9783 30.0841L35.8343 30.7069C35.7935 30.7605 35.6033 30.948 35.2636 31.2694C34.9239 31.5908 34.4416 31.9323 33.8166 32.2939C33.2052 32.6555 32.4443 32.9837 31.534 33.2783C30.6372 33.573 29.6046 33.7203 28.4362 33.7203C27.6753 33.7203 26.894 33.6198 26.0924 33.4189C25.3044 33.218 24.5843 32.8765 23.9321 32.3944C23.2799 31.9122 22.7432 31.2761 22.322 30.4859C21.9008 29.6957 21.6902 28.718 21.6902 27.5529C21.6902 26.602 21.8397 25.7247 22.1386 24.9212C22.4375 24.1176 22.8451 23.3877 23.3614 22.7314C23.8913 22.0752 24.5163 21.4993 25.2364 21.0038C25.9701 20.4948 26.7582 20.073 27.6006 19.7381C28.4565 19.4033 29.3601 19.1488 30.3112 18.9747C31.2622 18.8006 32.2269 18.7136 33.2052 18.7136C33.6264 18.7136 34.1155 18.7404 34.6726 18.7939C35.2432 18.8341 35.8207 18.881 36.4049 18.9346C37.0027 18.9747 37.587 19.0216 38.1576 19.0752C38.7283 19.1154 39.2378 19.1355 39.6862 19.1355C40.1889 19.1355 40.7256 19.1087 41.2962 19.0551C41.8804 18.9881 42.519 18.8743 43.212 18.7136C43.9185 18.5529 44.6929 18.3319 45.5353 18.0506C46.3777 17.756 47.322 17.381 48.3682 16.9256L48.8777 17.8297C48.8777 17.8297 48.7351 17.9703 48.4497 18.2515C48.1644 18.5328 47.7704 19.0283 47.2677 19.7381C46.765 20.448 46.1739 21.4189 45.4946 22.6511C44.8152 23.8832 44.0679 25.4569 43.2527 27.3721C42.4375 29.3006 41.6087 31.2158 40.7663 33.1176C39.9375 35.006 39.0408 36.8006 38.0761 38.5015C37.1114 40.2024 36.0516 41.7828 34.8968 43.2426C33.7554 44.689 32.4579 45.9413 31.0041 46.9993C29.5639 48.0573 27.947 48.881 26.1535 49.4703C24.3737 50.073 22.356 50.3743 20.1006 50.3743C18.7554 50.3743 17.5122 50.2203 16.3709 49.9122C15.2432 49.6042 14.2718 49.1555 13.4565 48.5663C12.6413 47.9904 12.0027 47.2872 11.5408 46.4569C11.0788 45.6265 10.8478 44.689 10.8478 43.6444C10.8478 42.3453 11.1264 41.2136 11.6834 40.2493C12.2405 39.2716 12.981 38.4547 13.9049 37.7984C14.8288 37.1422 15.8954 36.6533 17.1046 36.3319C18.3275 35.9971 19.591 35.8297 20.8954 35.8297C22.1454 35.8297 23.4022 35.9502 24.6658 36.1913C25.9294 36.4323 27.1454 36.7738 28.3139 37.2158L27.9266 38.2002C27.0571 37.8788 26.0992 37.6377 25.053 37.477C24.0068 37.3029 23.0285 37.2158 22.1182 37.2158C20.7188 37.2158 19.4688 37.3631 18.3682 37.6578C17.2677 37.9524 16.3302 38.381 15.5557 38.9435C14.7949 39.4926 14.2106 40.1622 13.803 40.9524C13.409 41.7426 13.212 42.6265 13.212 43.6042C13.212 44.5819 13.4429 45.4189 13.9049 46.1154C14.3804 46.8252 14.9919 47.4011 15.7391 47.843C16.4864 48.2984 17.3152 48.6332 18.2256 48.8475C19.1495 49.0618 20.053 49.1689 20.9362 49.1689C22.5802 49.1689 24.0612 48.948 25.3791 48.506C26.7106 48.0774 27.9131 47.4881 28.9864 46.7381C30.0598 45.9881 31.0177 45.1109 31.8601 44.1064C32.716 43.102 33.4973 42.0305 34.2038 40.8922C34.9239 39.7404 35.5829 38.5551 36.1807 37.3363C36.7785 36.1176 37.356 34.9189 37.9131 33.7404C38.8777 31.5439 39.8628 29.4747 40.8682 27.5328C41.2894 26.7024 41.7378 25.8587 42.2133 25.0015C42.7025 24.1444 43.1984 23.3274 43.7011 22.5506C44.2038 21.7605 44.7065 21.0372 45.2093 20.381C45.7256 19.7113 46.2215 19.1622 46.697 18.7337ZM67.4239 23.6154C67.4239 23.602 67.4783 23.4881 67.587 23.2738C67.6957 23.0596 67.8112 22.785 67.9334 22.4502C68.0693 22.102 68.1848 21.7136 68.2799 21.285C68.3886 20.8564 68.443 20.4212 68.443 19.9792C68.443 19.5238 68.3546 19.1087 68.178 18.7337C68.015 18.3453 67.784 18.0172 67.4851 17.7493C67.1997 17.468 66.8533 17.2538 66.4457 17.1064C66.0381 16.9457 65.6033 16.8654 65.1413 16.8654C64.5299 16.8654 63.9321 17.0261 63.3478 17.3475C62.7772 17.6689 62.1726 18.198 61.534 18.9346C60.909 19.6578 60.2296 20.6087 59.4959 21.7872C58.7622 22.9524 57.9266 24.3855 56.9891 26.0863C56.4728 27.0372 55.9497 27.881 55.4199 28.6176C54.9035 29.3408 54.3872 29.977 53.8709 30.5261C53.3546 31.0752 52.8451 31.5506 52.3424 31.9524C51.8397 32.3408 51.3506 32.6689 50.875 32.9368C51.3234 33.4591 51.697 34.1087 51.9959 34.8855C52.3084 35.6488 52.4647 36.593 52.4647 37.718C52.4647 38.3207 52.3832 38.9837 52.2201 39.7069C52.0707 40.4301 51.9008 41.16 51.7106 41.8966C51.534 42.6332 51.3709 43.3497 51.2215 44.0462C51.072 44.7426 50.9973 45.3587 50.9973 45.8944C50.9973 46.6176 51.106 47.2002 51.3234 47.6422C51.5408 48.0841 51.8193 48.4256 52.159 48.6667C52.4987 48.9212 52.8655 49.0886 53.2595 49.1689C53.6671 49.2493 54.0476 49.2895 54.4008 49.2895C54.9851 49.2895 55.5421 49.1957 56.072 49.0082C56.6155 48.8341 57.0978 48.6332 57.519 48.4055C58.0082 48.1511 58.4633 47.8497 58.8845 47.5015L59.5571 48.3252C59.5163 48.352 59.3329 48.4792 59.0068 48.7069C58.6943 48.948 58.2731 49.2024 57.7432 49.4703C57.2269 49.7381 56.6359 49.9792 55.9701 50.1935C55.3044 50.4078 54.6114 50.5149 53.8913 50.5149C53.144 50.5149 52.4443 50.3877 51.7921 50.1332C51.1535 49.8788 50.5965 49.5172 50.1209 49.0484C49.659 48.5797 49.2921 48.0238 49.0204 47.381C48.7487 46.7381 48.6128 46.0216 48.6128 45.2314C48.6128 44.4814 48.7079 43.7381 48.8981 43.0015C49.0883 42.2649 49.2989 41.5417 49.5299 40.8319C49.7609 40.1221 49.9715 39.4323 50.1617 38.7627C50.3519 38.093 50.447 37.4502 50.447 36.8341C50.447 36.2984 50.3791 35.7493 50.2432 35.1868C50.1209 34.6243 49.8764 34.0886 49.5095 33.5797C48.8845 33.7672 48.2867 33.9212 47.716 34.0417C47.1454 34.1622 46.4932 34.2225 45.7595 34.2225C45.1481 34.2225 44.6658 34.1555 44.3125 34.0216C43.9593 33.8743 43.6943 33.7136 43.5177 33.5395C43.3546 33.352 43.2459 33.1712 43.1916 32.9971C43.1508 32.8096 43.1304 32.6689 43.1304 32.5752C43.1304 32.0127 43.3818 31.5372 43.8845 31.1488C44.4008 30.7471 45.1006 30.5462 45.9837 30.5462C46.4593 30.5462 47.0231 30.6533 47.6753 30.8676C48.3275 31.0685 49.0068 31.41 49.7133 31.8922C50.4606 31.3698 51.1468 30.7136 51.7718 29.9234C52.4103 29.1332 53.015 28.2694 53.5856 27.3319C54.1563 26.381 54.7133 25.3899 55.2568 24.3587C55.8003 23.314 56.3574 22.2761 56.928 21.2448C57.947 19.41 59.1019 18.0105 60.3927 17.0462C61.6834 16.0685 63.0489 15.5797 64.4891 15.5797C65.1141 15.5797 65.7256 15.6801 66.3234 15.881C66.9348 16.0685 67.4783 16.3497 67.9538 16.7247C68.4294 17.0997 68.8098 17.5618 69.0951 18.1109C69.394 18.6466 69.5435 19.2627 69.5435 19.9591C69.5435 20.468 69.4824 20.9636 69.3601 21.4457C69.2514 21.9279 69.1223 22.3631 68.9728 22.7515C68.837 23.1265 68.7011 23.4413 68.5652 23.6957C68.443 23.9368 68.375 24.0774 68.3614 24.1176L67.4239 23.6154ZM48.572 32.5551C48.2188 32.2872 47.8044 32.0596 47.3288 31.8721C46.8669 31.6846 46.4049 31.5908 45.943 31.5908C45.4131 31.5908 44.9987 31.6846 44.6997 31.8721C44.4144 32.0462 44.2718 32.2538 44.2718 32.4948C44.2718 32.6422 44.3669 32.7895 44.5571 32.9368C44.7609 33.0841 45.1549 33.1578 45.7391 33.1578C46.1603 33.1578 46.6223 33.1109 47.125 33.0172C47.6413 32.91 48.1237 32.756 48.572 32.5551Z" fill="#2E3146"/>
      <path d="M46.697 18.7337C45.8954 19.0283 45.1549 19.2694 44.4756 19.4569C43.8098 19.6444 43.178 19.7917 42.5802 19.8988C41.9959 20.006 41.4253 20.0797 40.8682 20.1198C40.3247 20.16 39.7677 20.1801 39.197 20.1801C38.2731 20.1801 37.3152 20.1198 36.3234 19.9993C35.3315 19.8654 34.3737 19.7984 33.4497 19.7984C32.2133 19.7984 31.0245 19.9591 29.8832 20.2805C28.7554 20.5886 27.7568 21.0573 26.8872 21.6868C26.0177 22.3029 25.3247 23.0797 24.8084 24.0172C24.2921 24.9547 24.034 26.0529 24.034 27.3118C24.034 28.0752 24.1563 28.7716 24.4008 29.4011C24.6454 30.0172 24.9987 30.5462 25.4606 30.9881C25.9226 31.4301 26.4864 31.7716 27.1522 32.0127C27.8179 32.2538 28.5652 32.3743 29.394 32.3743C30.3315 32.3743 31.1468 32.2605 31.8397 32.0328C32.5326 31.8051 33.1033 31.5506 33.5516 31.2694C34.0136 30.9881 34.3601 30.727 34.591 30.4859C34.822 30.2448 34.9511 30.1109 34.9783 30.0841L35.8343 30.7069C35.7935 30.7605 35.6033 30.948 35.2636 31.2694C34.9239 31.5908 34.4416 31.9323 33.8166 32.2939C33.2052 32.6555 32.4443 32.9837 31.534 33.2783C30.6372 33.573 29.6046 33.7203 28.4362 33.7203C27.6753 33.7203 26.894 33.6198 26.0924 33.4189C25.3044 33.218 24.5843 32.8765 23.9321 32.3944C23.2799 31.9122 22.7432 31.2761 22.322 30.4859C21.9008 29.6957 21.6902 28.718 21.6902 27.5529C21.6902 26.602 21.8397 25.7247 22.1386 24.9212C22.4375 24.1176 22.8451 23.3877 23.3614 22.7314C23.8913 22.0752 24.5163 21.4993 25.2364 21.0038C25.9701 20.4948 26.7582 20.073 27.6006 19.7381C28.4565 19.4033 29.3601 19.1488 30.3112 18.9747C31.2622 18.8006 32.2269 18.7136 33.2052 18.7136C33.6264 18.7136 34.1155 18.7404 34.6726 18.7939C35.2432 18.8341 35.8207 18.881 36.4049 18.9346C37.0027 18.9747 37.587 19.0216 38.1576 19.0752C38.7283 19.1154 39.2378 19.1355 39.6862 19.1355C40.1889 19.1355 40.7256 19.1087 41.2962 19.0551C41.8804 18.9881 42.519 18.8743 43.212 18.7136C43.9185 18.5529 44.6929 18.3319 45.5353 18.0506C46.3777 17.756 47.322 17.381 48.3682 16.9256L48.8777 17.8297C48.8777 17.8297 48.7351 17.9703 48.4497 18.2515C48.1644 18.5328 47.7704 19.0283 47.2677 19.7381C46.765 20.448 46.1739 21.4189 45.4946 22.6511C44.8152 23.8832 44.0679 25.4569 43.2527 27.3721C42.4375 29.3006 41.6087 31.2158 40.7663 33.1176C39.9375 35.006 39.0408 36.8006 38.0761 38.5015C37.1114 40.2024 36.0516 41.7828 34.8968 43.2426C33.7554 44.689 32.4579 45.9413 31.0041 46.9993C29.5639 48.0573 27.947 48.881 26.1535 49.4703C24.3737 50.073 22.356 50.3743 20.1006 50.3743C18.7554 50.3743 17.5122 50.2203 16.3709 49.9122C15.2432 49.6042 14.2718 49.1555 13.4565 48.5663C12.6413 47.9904 12.0027 47.2872 11.5408 46.4569C11.0788 45.6265 10.8478 44.689 10.8478 43.6444C10.8478 42.3453 11.1264 41.2136 11.6834 40.2493C12.2405 39.2716 12.981 38.4547 13.9049 37.7984C14.8288 37.1422 15.8954 36.6533 17.1046 36.3319C18.3275 35.9971 19.591 35.8297 20.8954 35.8297C22.1454 35.8297 23.4022 35.9502 24.6658 36.1913C25.9294 36.4323 27.1454 36.7738 28.3139 37.2158L27.9266 38.2002C27.0571 37.8788 26.0992 37.6377 25.053 37.477C24.0068 37.3029 23.0285 37.2158 22.1182 37.2158C20.7188 37.2158 19.4688 37.3631 18.3682 37.6578C17.2677 37.9524 16.3302 38.381 15.5557 38.9435C14.7949 39.4926 14.2106 40.1622 13.803 40.9524C13.409 41.7426 13.212 42.6265 13.212 43.6042C13.212 44.5819 13.4429 45.4189 13.9049 46.1154C14.3804 46.8252 14.9919 47.4011 15.7391 47.843C16.4864 48.2984 17.3152 48.6332 18.2256 48.8475C19.1495 49.0618 20.053 49.1689 20.9362 49.1689C22.5802 49.1689 24.0612 48.948 25.3791 48.506C26.7106 48.0774 27.9131 47.4881 28.9864 46.7381C30.0598 45.9881 31.0177 45.1109 31.8601 44.1064C32.716 43.102 33.4973 42.0305 34.2038 40.8922C34.9239 39.7404 35.5829 38.5551 36.1807 37.3363C36.7785 36.1176 37.356 34.9189 37.9131 33.7404C38.8777 31.5439 39.8628 29.4747 40.8682 27.5328C41.2894 26.7024 41.7378 25.8587 42.2133 25.0015C42.7025 24.1444 43.1984 23.3274 43.7011 22.5506C44.2038 21.7605 44.7065 21.0372 45.2093 20.381C45.7256 19.7113 46.2215 19.1622 46.697 18.7337ZM67.4239 23.6154C67.4239 23.602 67.4783 23.4881 67.587 23.2738C67.6957 23.0596 67.8112 22.785 67.9334 22.4502C68.0693 22.102 68.1848 21.7136 68.2799 21.285C68.3886 20.8564 68.443 20.4212 68.443 19.9792C68.443 19.5238 68.3546 19.1087 68.178 18.7337C68.015 18.3453 67.784 18.0172 67.4851 17.7493C67.1997 17.468 66.8533 17.2538 66.4457 17.1064C66.0381 16.9457 65.6033 16.8654 65.1413 16.8654C64.5299 16.8654 63.9321 17.0261 63.3478 17.3475C62.7772 17.6689 62.1726 18.198 61.534 18.9346C60.909 19.6578 60.2296 20.6087 59.4959 21.7872C58.7622 22.9524 57.9266 24.3855 56.9891 26.0863C56.4728 27.0372 55.9497 27.881 55.4199 28.6176C54.9035 29.3408 54.3872 29.977 53.8709 30.5261C53.3546 31.0752 52.8451 31.5506 52.3424 31.9524C51.8397 32.3408 51.3506 32.6689 50.875 32.9368C51.3234 33.4591 51.697 34.1087 51.9959 34.8855C52.3084 35.6488 52.4647 36.593 52.4647 37.718C52.4647 38.3207 52.3832 38.9837 52.2201 39.7069C52.0707 40.4301 51.9008 41.16 51.7106 41.8966C51.534 42.6332 51.3709 43.3497 51.2215 44.0462C51.072 44.7426 50.9973 45.3587 50.9973 45.8944C50.9973 46.6176 51.106 47.2002 51.3234 47.6422C51.5408 48.0841 51.8193 48.4256 52.159 48.6667C52.4987 48.9212 52.8655 49.0886 53.2595 49.1689C53.6671 49.2493 54.0476 49.2895 54.4008 49.2895C54.9851 49.2895 55.5421 49.1957 56.072 49.0082C56.6155 48.8341 57.0978 48.6332 57.519 48.4055C58.0082 48.1511 58.4633 47.8497 58.8845 47.5015L59.5571 48.3252C59.5163 48.352 59.3329 48.4792 59.0068 48.7069C58.6943 48.948 58.2731 49.2024 57.7432 49.4703C57.2269 49.7381 56.6359 49.9792 55.9701 50.1935C55.3044 50.4078 54.6114 50.5149 53.8913 50.5149C53.144 50.5149 52.4443 50.3877 51.7921 50.1332C51.1535 49.8788 50.5965 49.5172 50.1209 49.0484C49.659 48.5797 49.2921 48.0238 49.0204 47.381C48.7487 46.7381 48.6128 46.0216 48.6128 45.2314C48.6128 44.4814 48.7079 43.7381 48.8981 43.0015C49.0883 42.2649 49.2989 41.5417 49.5299 40.8319C49.7609 40.1221 49.9715 39.4323 50.1617 38.7627C50.3519 38.093 50.447 37.4502 50.447 36.8341C50.447 36.2984 50.3791 35.7493 50.2432 35.1868C50.1209 34.6243 49.8764 34.0886 49.5095 33.5797C48.8845 33.7672 48.2867 33.9212 47.716 34.0417C47.1454 34.1622 46.4932 34.2225 45.7595 34.2225C45.1481 34.2225 44.6658 34.1555 44.3125 34.0216C43.9593 33.8743 43.6943 33.7136 43.5177 33.5395C43.3546 33.352 43.2459 33.1712 43.1916 32.9971C43.1508 32.8096 43.1304 32.6689 43.1304 32.5752C43.1304 32.0127 43.3818 31.5372 43.8845 31.1488C44.4008 30.7471 45.1006 30.5462 45.9837 30.5462C46.4593 30.5462 47.0231 30.6533 47.6753 30.8676C48.3275 31.0685 49.0068 31.41 49.7133 31.8922C50.4606 31.3698 51.1468 30.7136 51.7718 29.9234C52.4103 29.1332 53.015 28.2694 53.5856 27.3319C54.1563 26.381 54.7133 25.3899 55.2568 24.3587C55.8003 23.314 56.3574 22.2761 56.928 21.2448C57.947 19.41 59.1019 18.0105 60.3927 17.0462C61.6834 16.0685 63.0489 15.5797 64.4891 15.5797C65.1141 15.5797 65.7256 15.6801 66.3234 15.881C66.9348 16.0685 67.4783 16.3497 67.9538 16.7247C68.4294 17.0997 68.8098 17.5618 69.0951 18.1109C69.394 18.6466 69.5435 19.2627 69.5435 19.9591C69.5435 20.468 69.4824 20.9636 69.3601 21.4457C69.2514 21.9279 69.1223 22.3631 68.9728 22.7515C68.837 23.1265 68.7011 23.4413 68.5652 23.6957C68.443 23.9368 68.375 24.0774 68.3614 24.1176L67.4239 23.6154ZM48.572 32.5551C48.2188 32.2872 47.8044 32.0596 47.3288 31.8721C46.8669 31.6846 46.4049 31.5908 45.943 31.5908C45.4131 31.5908 44.9987 31.6846 44.6997 31.8721C44.4144 32.0462 44.2718 32.2538 44.2718 32.4948C44.2718 32.6422 44.3669 32.7895 44.5571 32.9368C44.7609 33.0841 45.1549 33.1578 45.7391 33.1578C46.1603 33.1578 46.6223 33.1109 47.125 33.0172C47.6413 32.91 48.1237 32.756 48.572 32.5551Z" stroke="#CACED5" stroke-width="2" mask="url(#path-4-outside-2_124_99)"/>
    </g>
  </g>
  <defs>
    <filter id="filter0_d_124_99" x="0" y="0" width="98" height="98" filterUnits="userSpaceOnUse" color-interpolation-filters="sRGB">
      <feFlood flood-opacity="0" result="BackgroundImageFix"/>
      <feColorMatrix in="SourceAlpha" type="matrix" values="0 0 0 0 0 0 0 0 0 0 0 0 0 0 0 0 0 0 127 0" result="hardAlpha"/>
      <feOffset dy="4"/>
      <feGaussianBlur stdDeviation="2"/>
      <feComposite in2="hardAlpha" operator="out"/>
      <feColorMatrix type="matrix" values="0 0 0 0 0 0 0 0 0 0 0 0 0 0 0 0 0 0 0.25 0"/>
      <feBlend mode="normal" in2="BackgroundImageFix" result="effect1_dropShadow_124_99"/>
      <feBlend mode="normal" in="SourceGraphic" in2="effect1_dropShadow_124_99" result="shape"/>
    </filter>
    <filter id="filter1_d_124_99" x="18.2391" y="31.1171" width="65.8798" height="47.9351" filterUnits="userSpaceOnUse" color-interpolation-filters="sRGB">
      <feFlood flood-opacity="0" result="BackgroundImageFix"/>
      <feColorMatrix in="SourceAlpha" type="matrix" values="0 0 0 0 0 0 0 0 0 0 0 0 0 0 0 0 0 0 127 0" result="hardAlpha"/>
      <feOffset dy="4"/>
      <feGaussianBlur stdDeviation="2"/>
      <feComposite in2="hardAlpha" operator="out"/>
      <feColorMatrix type="matrix" values="0 0 0 0 0 0 0 0 0 0 0 0 0 0 0 0 0 0 0.25 0"/>
      <feBlend mode="normal" in2="BackgroundImageFix" result="effect1_dropShadow_124_99"/>
      <feBlend mode="normal" in="SourceGraphic" in2="effect1_dropShadow_124_99" result="shape"/>
    </filter>
    <filter id="filter2_d_124_99" x="5.84784" y="14.5797" width="68.6957" height="44.9352" filterUnits="userSpaceOnUse" color-interpolation-filters="sRGB">
      <feFlood flood-opacity="0" result="BackgroundImageFix"/>
      <feColorMatrix in="SourceAlpha" type="matrix" values="0 0 0 0 0 0 0 0 0 0 0 0 0 0 0 0 0 0 127 0" result="hardAlpha"/>
      <feOffset dy="4"/>
      <feGaussianBlur stdDeviation="2"/>
      <feComposite in2="hardAlpha" operator="out"/>
      <feColorMatrix type="matrix" values="0 0 0 0 0 0 0 0 0 0 0 0 0 0 0 0 0 0 0.25 0"/>
      <feBlend mode="normal" in2="BackgroundImageFix" result="effect1_dropShadow_124_99"/>
      <feBlend mode="normal" in="SourceGraphic" in2="effect1_dropShadow_124_99" result="shape"/>
    </filter>
  </defs>
</svg>
