<svg width="202" height="146" viewBox="0 0 202 146" fill="none" xmlns="http://www.w3.org/2000/svg">
  <path d="M40.5 37C47.9558 37 54 29.6127 54 20.5C54 11.3873 47.9558 4 40.5 4C33.0442 4 27 11.3873 27 20.5C27 29.6127 33.0442 37 40.5 37ZM40.5 37V77.5M40.5 37C46.4353 39.2898 49.4736 41.617 54 49V84M40.5 37C30.3562 36.9875 25.803 39.0879 21 49V60M54 104.5V132.5V145M54 104.5C52.2724 96.2876 49.5099 93.1713 40.5 91H27C23.3116 90.7919 21.4825 90.3308 21 85.5V60M54 104.5H19.5M61 91H68C76.3227 92.5818 79.0992 95.7546 81.5 104.5V132.5L89 141.5H68V104.5M21 60C15.3633 50.8734 11.131 50.78 3.5 51L9.5 99C11.6931 103.821 13.3221 104.548 16.5 104.5H19.5M7 145L19.5 104.5" stroke="currentColor" stroke-width="6" stroke-linejoin="round"/>
  <path d="M162.216 37C154.804 37 148.795 29.6127 148.795 20.5C148.795 11.3873 154.804 4 162.216 4C169.629 4 175.637 11.3873 175.637 20.5C175.637 29.6127 169.629 37 162.216 37ZM162.216 37V77.5M162.216 37C156.316 39.2898 153.295 41.617 148.795 49V84M162.216 37C172.301 36.9875 176.827 39.0879 181.602 49V60M148.795 104.5V132.5V145M148.795 104.5C150.513 96.2876 153.259 93.1713 162.216 91H175.637C179.304 90.7919 181.123 90.3308 181.602 85.5V60M148.795 104.5H183.094M141.836 91H134.877C126.603 92.5818 123.843 95.7546 121.456 104.5V132.5L114 141.5H134.877V104.5M181.602 60C187.206 50.8734 191.414 50.78 199 51L193.035 99C190.855 103.821 189.235 104.548 186.076 104.5H183.094M195.52 145L183.094 104.5" stroke="currentColor" stroke-width="6" stroke-linejoin="round"/>
  <path d="M101 37C108.732 37 115 29.3888 115 20C115 10.6112 108.732 3 101 3C93.268 3 87 10.6112 87 20C87 29.3888 93.268 37 101 37ZM101 37C91.1277 36.0994 86.8611 38.3048 81 46V64M101 37C113.799 36.5648 117.693 39.0241 121.5 46V64M101 37V64M64 74.5H101M138 74.5H101M101 145V74.5" stroke="currentColor" stroke-width="6" stroke-linejoin="round"/>
</svg>
