<svg width="201" height="201" viewBox="0 0 201 201" fill="none" xmlns="http://www.w3.org/2000/svg">
  <path d="M36 61C44.2843 61 51 53.6127 51 44.5C51 35.3873 44.2843 28 36 28C27.7157 28 21 35.3873 21 44.5C21 53.6127 27.7157 61 36 61ZM36 61C23.2498 60.7805 17.8608 62.3981 11.5 68.5C6.10605 74.3848 4.85039 77.2057 3.5 82V121.5C4.46757 125.329 5.86239 126.952 10.5 128.5H19M36 61C47.6111 60.3779 53.2134 61.7703 61 68.5C61.8057 69.3881 62.5221 70.2125 63.1659 71M19 128.5V113.5M19 128.5V197.5H36.25M19 113.5H53.5M19 113.5V101.5V87.5V85V86M53.5 113.5V128.5M53.5 113.5V101.5V99V100M53.5 128.5H62C66.0054 127.689 67.7296 126.444 69 121.5V113.5M53.5 128.5V197.5H36.25M36.25 197.5V129.5V199.5" stroke="currentColor" stroke-width="6" stroke-linejoin="round"/>
  <path d="M81 118.5C71.6837 116.418 67.1414 114.268 63.5 104V54C66.5469 47.2596 69.053 44.6779 75 42.5H100.5M81 118.5V106M81 118.5V197.5H100.5M81 106H119.5M81 106V58.5V80.5M119.5 106V58.5V80.5M119.5 106V117.5M100.5 42.5H126C131.553 44.7501 133.952 47.5179 137.5 54V104C133.664 112.977 129.297 115.709 119.5 118.5V117.5M100.5 42.5V59.5V40M100 71.5V70.5V72.5V69.5M119.5 145V142.5V146V141M100.5 134V124.5V197.5M100.5 197.5H119.5V155V166.5M119.5 128V134V117.5" stroke="currentColor" stroke-width="6" stroke-linejoin="round"/>
  <path d="M164.5 61C172.784 61 179.5 53.6127 179.5 44.5C179.5 35.3873 172.784 28 164.5 28C156.216 28 149.5 35.3873 149.5 44.5C149.5 53.6127 156.216 61 164.5 61ZM164.5 61C151.75 60.7805 146.361 62.3981 140 68.5C139.176 69.3988 138.449 70.2262 137.803 71M164.5 61C176.111 60.3779 181.713 61.7703 189.5 68.5C193.969 73.4268 195.693 76.3899 197.5 82V121.5C196.23 126.444 194.505 127.689 190.5 128.5H182M147.5 128.5H139C134.362 126.952 132.968 125.329 132 121.5V112.5M147.5 128.5V113.5M147.5 128.5V197.5H164.75M147.5 113.5H182M147.5 113.5V101.5V98.5V100M182 113.5V128.5M182 113.5V101.5V87V84.5V85.5M182 128.5V197.5H164.75M164.75 197.5V129.5V199.5" stroke="currentColor" stroke-width="6" stroke-linejoin="round"/>
  <ellipse cx="100" cy="22" rx="18" ry="19" stroke="currentColor" stroke-width="6" stroke-linejoin="round"/>
</svg>
