<svg width="157" height="203" viewBox="0 0 157 203" fill="none" xmlns="http://www.w3.org/2000/svg">
  <path d="M107.5 57.5V69.5L108.5 69.0001C111.06 67.5664 115.193 65.8559 118 66.2345M49 57.5V69.5001L48.5 69C45.8007 67.9618 41.42 66.7038 38.5 66.9661M38.5 66.9661C36.7324 67.1249 35.5 67.8409 35.5 69.5001V79.5001C35.5 81.9001 40.5391 83.8334 43.0587 84.5001C43.7544 96.3288 50.582 106.562 60.5 112.243M38.5 66.9661V51C64.4114 64.6832 85.5527 68.2922 118 50.5V66.2345M118 66.2345C119.761 66.4722 121 67.5325 121 70.0001C121 67.5001 121 79.5001 121 79.5001C120.287 83.7176 118.294 84.4781 113.908 85.0001C113.009 97.2019 105.581 107.648 95 113.055M60.5 112.243C65.7777 115.266 71.9305 117 78.5 117C84.4565 117 90.0704 115.574 95 113.055M60.5 112.243C60.5 117.793 59.3236 123.375 58.4533 126.5M78.5 143.5L58 128C58.1332 127.6 58.2877 127.095 58.4533 126.5M78.5 143.5L100.5 126.5C100.155 126.189 99.8297 125.855 99.5234 125.5M78.5 143.5L67 147.682M78.5 143.5L89.3031 147.682M95 113.055C95.1523 115.779 96.2787 121.745 99.5234 125.5M45.5 128L62 149.5L67 147.682M45.5 128L55 125.5L58.4533 126.5M45.5 128L23.5 131.5C22.4495 131.791 21.4502 132.13 20.5 132.515M110.5 128L94 149.5L89.3031 147.682M110.5 128L104.5 125.5H99.5234M110.5 128L135.5 131.5C136.125 131.96 136.796 132.487 137.5 133.078M67 147.682L73.5 155.5M73.5 155.5H83M73.5 155.5L67 200M83 155.5L89.3031 147.682M83 155.5L89.3031 200M3.50003 167.5C2.91449 162.565 3.21897 154.825 6.04432 147.682M3.50003 175.5V200H25M67 200H89.3031M67 200H25M89.3031 200H132M137.5 133.078C145.053 139.416 156.293 152.996 153 167.5V200H132M137.5 133.078L131 140L143 152.5L149.5 149.5M6.04432 147.682L14 152.5L25 140L20.5 132.515M6.04432 147.682C8.53382 141.388 12.9805 135.556 20.5 132.515M132 173V200M25 173V200M36.5 185.5V173H55V185.5H36.5ZM102 185.5V173H120V185.5H102Z" stroke="currentColor" stroke-width="6" stroke-linejoin="round"/>
  <path d="M38.5 47C34.3333 44.1667 26 37.5 26 33.5002C29.2175 18.7164 47.755 4.63509 74.4367 3.55029C103.432 3.55029 128.437 17.258 128.437 33.5504C127.124 38.0336 123.2 47 118 47M38.5 47H93.5M38.5 47V33.5504C69.5467 22.2715 86.9533 22.1141 118 33.5002V47M103 47H118" stroke="currentColor" stroke-width="6"/>
</svg>
