<svg width="201" height="202" viewBox="0 0 201 202" fill="none" xmlns="http://www.w3.org/2000/svg">
  <path d="M26 44L39 50.5L56 44H144.5L161 50.5L174 44M94 172V30.5M94 172H107M94 172L80.5 185.5M94 30.5H107M94 30.5H83.5M94 30.5L89.5 13C91.1376 6.85169 92.7189 4.0618 100 3.5C106.678 3.79795 109.047 5.96667 111 13L107 30.5M107 30.5V172M107 30.5H117M107 172L120.5 185.5M80.5 185.5H120.5M80.5 185.5H61.5C55.9083 188.867 54.3756 191.867 53.5 198.5H147.5C147.203 193.043 146.269 190.066 137.5 185.5H120.5" stroke="currentColor" stroke-width="6" stroke-linejoin="round"/>
  <path d="M3 125H76M3 125C3.42782 136.26 7.01244 140.56 19 145H60C71.6614 140.594 75.4243 136.387 76 125M3 125L39 46.5L76 125" stroke="currentColor" stroke-width="6" stroke-linejoin="round"/>
  <path d="M125 125.5H198M125 125.5C125.428 136.76 129.012 141.06 141 145.5H182C193.661 141.094 197.424 136.887 198 125.5M125 125.5L161 47L198 125.5" stroke="currentColor" stroke-width="6" stroke-linejoin="round"/>
</svg>
